<svg width="100" height="100" viewBox="0 0 100 100" fill="none" xmlns="http://www.w3.org/2000/svg">
<g clip-path="url(#clip0_1_9)">
<rect width="100" height="100" rx="10" fill="#EDEDED"/>
<path d="M0.473719 6.43619C4.70762 -0.897143 15.2924 -0.897146 19.5263 6.43619L48.5799 56.7585C51.2958 61.4625 50.1715 67.4447 45.9331 70.8418L20.279 91.4036C16.5398 94.4005 11.2908 94.632 7.30235 91.9759L-24.7128 70.6556C-29.5423 67.4394 -31.0432 61.025 -28.142 56L0.473719 6.43619Z" fill="#00B3FF"/>
<path d="M59.1853 72.6099C59.3948 72.0579 59.6365 71.517 59.9864 71.0415C65.3232 63.7881 88.1457 54.4712 92.2391 61.5611L121.293 111.883C124.009 116.587 122.884 122.57 118.646 125.967L92.9918 146.529C89.2526 149.525 84.0036 149.757 80.0152 147.101L48 125.781C43.4189 122.73 41.8328 116.801 44.158 111.911C44.4116 111.377 44.6761 110.848 44.8855 110.296L59.1853 72.6099Z" fill="#00FF66"/>
<path d="M54.3055 -9.27551C52.1231 -17.4572 59.616 -24.9334 67.7928 -22.7326L114.624 -10.1279C122.8 -7.9271 125.528 2.30005 119.534 8.28097L85.2028 42.5353C79.2084 48.5162 68.9874 45.7652 66.805 37.5835L54.3055 -9.27551Z" fill="#FFE600"/>
<path d="M29.06 63V36.36H34.244V58.878H48.572V63H29.06ZM57.8206 63.36C55.1566 63.36 52.7986 63.066 50.7466 62.478V58.932C52.9786 59.556 55.3306 59.868 57.8026 59.868C59.4466 59.868 60.6226 59.664 61.3306 59.256C62.0506 58.848 62.4106 58.248 62.4106 57.456C62.4106 56.844 62.2306 56.376 61.8706 56.052C61.5106 55.728 60.8566 55.494 59.9086 55.35L56.2366 54.81C54.1486 54.498 52.6426 53.88 51.7186 52.956C50.7946 52.032 50.3326 50.79 50.3326 49.23C50.3326 47.31 51.1426 45.804 52.7626 44.712C54.3946 43.608 56.8786 43.056 60.2146 43.056C61.2586 43.056 62.2966 43.122 63.3286 43.254C64.3726 43.386 65.3086 43.566 66.1366 43.794V47.34C64.3126 46.824 62.3506 46.566 60.2506 46.566C58.3546 46.566 57.0346 46.782 56.2906 47.214C55.5466 47.646 55.1746 48.246 55.1746 49.014C55.1746 49.566 55.3546 50.016 55.7146 50.364C56.0746 50.712 56.7046 50.964 57.6046 51.12L61.2766 51.66C63.3166 51.96 64.8226 52.536 65.7946 53.388C66.7666 54.24 67.2526 55.512 67.2526 57.204C67.2526 58.476 66.8926 59.574 66.1726 60.498C65.4646 61.422 64.4026 62.13 62.9866 62.622C61.5826 63.114 59.8606 63.36 57.8206 63.36ZM73.8654 63.27C72.8334 63.27 72.0174 63.006 71.4174 62.478C70.8294 61.938 70.5354 61.206 70.5354 60.282C70.5354 59.346 70.8294 58.608 71.4174 58.068C72.0054 57.528 72.8214 57.258 73.8654 57.258C74.9094 57.258 75.7254 57.534 76.3134 58.086C76.9014 58.626 77.1954 59.358 77.1954 60.282C77.1954 61.194 76.8954 61.92 76.2954 62.46C75.7074 63 74.8974 63.27 73.8654 63.27Z" fill="black"/>
</g>
<defs>
<clipPath id="clip0_1_9">
<rect width="100" height="100" fill="white"/>
</clipPath>
</defs>
</svg>
