<svg width="100" height="100" viewBox="0 0 100 100" fill="none" xmlns="http://www.w3.org/2000/svg">
<g clip-path="url(#clip0_1_9)">
<rect width="100" height="100" rx="10" fill="#EDEDED"/>
<path d="M-3.52628 47.5C0.707621 40.1667 11.2924 40.1667 15.5263 47.5L39.775 89.5C44.0089 96.8333 38.7165 106 30.2487 106H-18.2487C-26.7165 106 -32.0089 96.8333 -27.775 89.5L-3.52628 47.5Z" fill="#00B3FF"/>
<path d="M54.3055 -9.27551C52.1231 -17.4572 59.616 -24.9334 67.7928 -22.7326L114.624 -10.1279C122.8 -7.9271 125.528 2.30005 119.534 8.28097L85.2028 42.5353C79.2084 48.5162 68.9874 45.7652 66.805 37.5835L54.3055 -9.27551Z" fill="#00B3FF"/>
<path d="M49.202 40.41H34.244V47.808H47.276V51.858H34.244V63H29.06V36.36H49.202V40.41ZM60.4115 63.342C57.4835 63.342 54.7475 62.94 52.2035 62.136V57.996C53.4275 58.404 54.7895 58.722 56.2895 58.95C57.7895 59.166 59.1815 59.274 60.4655 59.274C62.6015 59.274 64.1495 58.962 65.1095 58.338C66.0695 57.702 66.5495 56.772 66.5495 55.548C66.5495 54.864 66.3935 54.3 66.0815 53.856C65.7815 53.4 65.2835 53.022 64.5875 52.722C63.9035 52.422 62.9495 52.152 61.7255 51.912L59.7275 51.534C56.9075 50.982 54.8555 50.094 53.5715 48.87C52.2875 47.634 51.6455 45.99 51.6455 43.938C51.6455 41.418 52.6235 39.468 54.5795 38.088C56.5355 36.708 59.4215 36.018 63.2375 36.018C65.8415 36.018 68.2055 36.318 70.3295 36.918V41.058C69.3215 40.746 68.2055 40.506 66.9815 40.338C65.7695 40.17 64.5515 40.086 63.3275 40.086C61.0355 40.086 59.3675 40.404 58.3235 41.04C57.2915 41.664 56.7755 42.57 56.7755 43.758C56.7755 44.418 56.9075 44.97 57.1715 45.414C57.4355 45.858 57.8735 46.23 58.4855 46.53C59.1095 46.83 59.9675 47.088 61.0595 47.304L63.0575 47.682C65.1215 48.09 66.7835 48.636 68.0435 49.32C69.3155 49.992 70.2395 50.82 70.8155 51.804C71.3915 52.788 71.6795 53.952 71.6795 55.296C71.6795 56.976 71.2295 58.422 70.3295 59.634C69.4415 60.834 68.1515 61.752 66.4595 62.388C64.7675 63.024 62.7515 63.342 60.4115 63.342Z" fill="black"/>
</g>
<defs>
<clipPath id="clip0_1_9">
<rect width="100" height="100" fill="white"/>
</clipPath>
</defs>
</svg>
